<mxfile host="app.diagrams.net" modified="2020-12-14T01:17:01.001Z" agent="5.0 (X11)" etag="PsDcy908kInvKp_4Kvuf" version="14.0.1" type="github">
  <diagram id="e3HjJ6J9HYlv3P46TpsJ" name="Page-1">
    <mxGraphModel dx="2060" dy="1132" grid="1" gridSize="10" guides="1" tooltips="1" connect="1" arrows="1" fold="1" page="1" pageScale="1" pageWidth="827" pageHeight="1169" math="0" shadow="0">
      <root>
        <mxCell id="0" />
        <mxCell id="1" parent="0" />
        <mxCell id="penqcY7FDsMhJb0R-XBn-3" value="" style="edgeStyle=orthogonalEdgeStyle;rounded=0;orthogonalLoop=1;jettySize=auto;html=1;" edge="1" parent="1" source="penqcY7FDsMhJb0R-XBn-1" target="penqcY7FDsMhJb0R-XBn-2">
          <mxGeometry relative="1" as="geometry" />
        </mxCell>
        <mxCell id="penqcY7FDsMhJb0R-XBn-1" value="Select an open tile with the lowest F cost" style="rounded=0;whiteSpace=wrap;html=1;" vertex="1" parent="1">
          <mxGeometry x="354" y="180" width="120" height="60" as="geometry" />
        </mxCell>
        <mxCell id="penqcY7FDsMhJb0R-XBn-7" value="" style="edgeStyle=orthogonalEdgeStyle;rounded=0;orthogonalLoop=1;jettySize=auto;html=1;" edge="1" parent="1" source="penqcY7FDsMhJb0R-XBn-2" target="penqcY7FDsMhJb0R-XBn-6">
          <mxGeometry relative="1" as="geometry" />
        </mxCell>
        <mxCell id="penqcY7FDsMhJb0R-XBn-2" value="Set that tile to closed" style="whiteSpace=wrap;html=1;rounded=0;" vertex="1" parent="1">
          <mxGeometry x="354" y="320" width="120" height="60" as="geometry" />
        </mxCell>
        <mxCell id="penqcY7FDsMhJb0R-XBn-9" value="" style="edgeStyle=orthogonalEdgeStyle;rounded=0;orthogonalLoop=1;jettySize=auto;html=1;" edge="1" parent="1" source="penqcY7FDsMhJb0R-XBn-6" target="penqcY7FDsMhJb0R-XBn-8">
          <mxGeometry relative="1" as="geometry" />
        </mxCell>
        <mxCell id="penqcY7FDsMhJb0R-XBn-10" value="Yes" style="edgeLabel;html=1;align=center;verticalAlign=middle;resizable=0;points=[];" vertex="1" connectable="0" parent="penqcY7FDsMhJb0R-XBn-9">
          <mxGeometry x="-0.2921" y="-1" relative="1" as="geometry">
            <mxPoint as="offset" />
          </mxGeometry>
        </mxCell>
        <mxCell id="penqcY7FDsMhJb0R-XBn-12" value="" style="edgeStyle=orthogonalEdgeStyle;rounded=0;orthogonalLoop=1;jettySize=auto;html=1;" edge="1" parent="1" source="penqcY7FDsMhJb0R-XBn-6">
          <mxGeometry relative="1" as="geometry">
            <mxPoint x="414" y="650" as="targetPoint" />
          </mxGeometry>
        </mxCell>
        <mxCell id="penqcY7FDsMhJb0R-XBn-13" value="No" style="edgeLabel;html=1;align=center;verticalAlign=middle;resizable=0;points=[];" vertex="1" connectable="0" parent="penqcY7FDsMhJb0R-XBn-12">
          <mxGeometry x="-0.2943" y="-1" relative="1" as="geometry">
            <mxPoint as="offset" />
          </mxGeometry>
        </mxCell>
        <mxCell id="penqcY7FDsMhJb0R-XBn-6" value="Is current tile target?" style="rhombus;whiteSpace=wrap;html=1;rounded=0;" vertex="1" parent="1">
          <mxGeometry x="367" y="450" width="94" height="100" as="geometry" />
        </mxCell>
        <mxCell id="penqcY7FDsMhJb0R-XBn-8" value="Return path" style="whiteSpace=wrap;html=1;rounded=0;" vertex="1" parent="1">
          <mxGeometry x="528" y="470" width="120" height="60" as="geometry" />
        </mxCell>
        <mxCell id="penqcY7FDsMhJb0R-XBn-16" value="" style="edgeStyle=orthogonalEdgeStyle;rounded=0;orthogonalLoop=1;jettySize=auto;html=1;" edge="1" parent="1" source="penqcY7FDsMhJb0R-XBn-14" target="penqcY7FDsMhJb0R-XBn-15">
          <mxGeometry relative="1" as="geometry" />
        </mxCell>
        <mxCell id="penqcY7FDsMhJb0R-XBn-32" value="" style="edgeStyle=orthogonalEdgeStyle;rounded=0;orthogonalLoop=1;jettySize=auto;html=1;entryX=1;entryY=0.5;entryDx=0;entryDy=0;" edge="1" parent="1" source="penqcY7FDsMhJb0R-XBn-14" target="penqcY7FDsMhJb0R-XBn-1">
          <mxGeometry relative="1" as="geometry">
            <mxPoint x="730" y="180" as="targetPoint" />
            <Array as="points">
              <mxPoint x="730" y="680" />
              <mxPoint x="730" y="210" />
            </Array>
          </mxGeometry>
        </mxCell>
        <mxCell id="penqcY7FDsMhJb0R-XBn-33" value="When Complete" style="edgeLabel;html=1;align=center;verticalAlign=middle;resizable=0;points=[];" vertex="1" connectable="0" parent="penqcY7FDsMhJb0R-XBn-32">
          <mxGeometry x="0.3121" y="4" relative="1" as="geometry">
            <mxPoint x="-116" y="384" as="offset" />
          </mxGeometry>
        </mxCell>
        <mxCell id="penqcY7FDsMhJb0R-XBn-14" value="Iterate over each neighbor " style="shape=parallelogram;perimeter=parallelogramPerimeter;whiteSpace=wrap;html=1;fixedSize=1;" vertex="1" parent="1">
          <mxGeometry x="353" y="650" width="120" height="60" as="geometry" />
        </mxCell>
        <mxCell id="penqcY7FDsMhJb0R-XBn-17" style="edgeStyle=orthogonalEdgeStyle;rounded=0;orthogonalLoop=1;jettySize=auto;html=1;entryX=0.675;entryY=1.05;entryDx=0;entryDy=0;entryPerimeter=0;" edge="1" parent="1" source="penqcY7FDsMhJb0R-XBn-15" target="penqcY7FDsMhJb0R-XBn-14">
          <mxGeometry relative="1" as="geometry">
            <mxPoint x="570" y="670" as="targetPoint" />
            <Array as="points">
              <mxPoint x="450" y="770" />
              <mxPoint x="450" y="770" />
            </Array>
          </mxGeometry>
        </mxCell>
        <mxCell id="penqcY7FDsMhJb0R-XBn-18" value="No" style="edgeLabel;html=1;align=center;verticalAlign=middle;resizable=0;points=[];" vertex="1" connectable="0" parent="penqcY7FDsMhJb0R-XBn-17">
          <mxGeometry x="0.2723" relative="1" as="geometry">
            <mxPoint as="offset" />
          </mxGeometry>
        </mxCell>
        <mxCell id="penqcY7FDsMhJb0R-XBn-20" value="Yes" style="edgeStyle=orthogonalEdgeStyle;rounded=0;orthogonalLoop=1;jettySize=auto;html=1;" edge="1" parent="1" source="penqcY7FDsMhJb0R-XBn-15" target="penqcY7FDsMhJb0R-XBn-19">
          <mxGeometry relative="1" as="geometry" />
        </mxCell>
        <mxCell id="penqcY7FDsMhJb0R-XBn-15" value="&lt;div&gt;Is the new &lt;br&gt;&lt;/div&gt;&lt;div&gt;path to the neighbour &lt;br&gt;&lt;/div&gt;&lt;div&gt;shorter or &lt;br&gt;&lt;/div&gt;&lt;div&gt;is the neighbor &lt;br&gt;&lt;/div&gt;&lt;div&gt;not open?&lt;/div&gt;" style="rhombus;whiteSpace=wrap;html=1;" vertex="1" parent="1">
          <mxGeometry x="338" y="770" width="150" height="140" as="geometry" />
        </mxCell>
        <mxCell id="penqcY7FDsMhJb0R-XBn-22" value="" style="edgeStyle=orthogonalEdgeStyle;rounded=0;orthogonalLoop=1;jettySize=auto;html=1;" edge="1" parent="1" source="penqcY7FDsMhJb0R-XBn-19" target="penqcY7FDsMhJb0R-XBn-21">
          <mxGeometry relative="1" as="geometry" />
        </mxCell>
        <mxCell id="penqcY7FDsMhJb0R-XBn-19" value="Calculate F cost of neighbour" style="whiteSpace=wrap;html=1;" vertex="1" parent="1">
          <mxGeometry x="353" y="960" width="120" height="60" as="geometry" />
        </mxCell>
        <mxCell id="penqcY7FDsMhJb0R-XBn-24" value="" style="edgeStyle=orthogonalEdgeStyle;rounded=0;orthogonalLoop=1;jettySize=auto;html=1;" edge="1" parent="1" source="penqcY7FDsMhJb0R-XBn-21" target="penqcY7FDsMhJb0R-XBn-23">
          <mxGeometry relative="1" as="geometry" />
        </mxCell>
        <mxCell id="penqcY7FDsMhJb0R-XBn-21" value="Set parent of neighbor to current tile" style="whiteSpace=wrap;html=1;" vertex="1" parent="1">
          <mxGeometry x="353" y="1060" width="120" height="60" as="geometry" />
        </mxCell>
        <mxCell id="penqcY7FDsMhJb0R-XBn-26" value="" style="edgeStyle=orthogonalEdgeStyle;rounded=0;orthogonalLoop=1;jettySize=auto;html=1;" edge="1" parent="1" source="penqcY7FDsMhJb0R-XBn-23" target="penqcY7FDsMhJb0R-XBn-25">
          <mxGeometry relative="1" as="geometry" />
        </mxCell>
        <mxCell id="penqcY7FDsMhJb0R-XBn-27" value="No" style="edgeLabel;html=1;align=center;verticalAlign=middle;resizable=0;points=[];" vertex="1" connectable="0" parent="penqcY7FDsMhJb0R-XBn-26">
          <mxGeometry x="-0.2163" relative="1" as="geometry">
            <mxPoint as="offset" />
          </mxGeometry>
        </mxCell>
        <mxCell id="penqcY7FDsMhJb0R-XBn-28" style="edgeStyle=orthogonalEdgeStyle;rounded=0;orthogonalLoop=1;jettySize=auto;html=1;entryX=0;entryY=0.5;entryDx=0;entryDy=0;" edge="1" parent="1" source="penqcY7FDsMhJb0R-XBn-23" target="penqcY7FDsMhJb0R-XBn-14">
          <mxGeometry relative="1" as="geometry">
            <mxPoint x="220" y="670" as="targetPoint" />
            <Array as="points">
              <mxPoint x="220" y="1235" />
              <mxPoint x="220" y="680" />
            </Array>
          </mxGeometry>
        </mxCell>
        <mxCell id="penqcY7FDsMhJb0R-XBn-29" value="&lt;div&gt;Yes&lt;/div&gt;" style="edgeLabel;html=1;align=center;verticalAlign=middle;resizable=0;points=[];" vertex="1" connectable="0" parent="penqcY7FDsMhJb0R-XBn-28">
          <mxGeometry x="-0.7655" relative="1" as="geometry">
            <mxPoint as="offset" />
          </mxGeometry>
        </mxCell>
        <mxCell id="penqcY7FDsMhJb0R-XBn-23" value="Is neighbour open?" style="rhombus;whiteSpace=wrap;html=1;" vertex="1" parent="1">
          <mxGeometry x="363" y="1190" width="100" height="90" as="geometry" />
        </mxCell>
        <mxCell id="penqcY7FDsMhJb0R-XBn-30" style="edgeStyle=orthogonalEdgeStyle;rounded=0;orthogonalLoop=1;jettySize=auto;html=1;" edge="1" parent="1" source="penqcY7FDsMhJb0R-XBn-25">
          <mxGeometry relative="1" as="geometry">
            <mxPoint x="220" y="1230" as="targetPoint" />
          </mxGeometry>
        </mxCell>
        <mxCell id="penqcY7FDsMhJb0R-XBn-25" value="Add to open" style="whiteSpace=wrap;html=1;" vertex="1" parent="1">
          <mxGeometry x="353" y="1330" width="120" height="60" as="geometry" />
        </mxCell>
      </root>
    </mxGraphModel>
  </diagram>
</mxfile>
